# xmcd
#
# Track frame offsets:
#	225
#	15394
#	30864
#	43718
#	61259
#	76222
#	88582
#	110975
#	126779
#	138417
#	151644
#
# Disc length: 2237 seconds
#
# Revision: 1
# Processed by: cddbd v1.5.2PL0 Copyright (c) Steve Scherf et al.
# Submitted via: EasyCDDAExtractor 4.6.0.1
#
DISCID=7d08ba0b
DTITLE=Tina Rauch - Dreamin' 'Bout America
DYEAR=1998
DGENRE=Country
TTITLE0=Three Words
TTITLE1=Dreamin' 'bout America
TTITLE2=Looks Like I Love You
TTITLE3=Watching The Jetstream Fade (Feat. Jimmy Z.)
TTITLE4=Song Of The Grand Canyon
TTITLE5=Rockin' With The Rhythm Of Rain
TTITLE6=Sounds Like The Blues
TTITLE7=Country Waltzin'
TTITLE8=Keep It Cool, Keep It Country
TTITLE9=Stay By My Side
TTITLE10=Go Rest High On That Mountain
EXTD=
EXTT0=
EXTT1=
EXTT2=
EXTT3=
EXTT4=
EXTT5=
EXTT6=
EXTT7=
EXTT8=
EXTT9=
EXTT10=
PLAYORDER=
